<svg width="135" height="32" viewBox="0 0 135 32" fill="none" xmlns="http://www.w3.org/2000/svg">
<path d="M44.478 16.6239C44.478 15.5752 44.684 14.6451 45.096 13.8335C45.5205 13.022 46.0949 12.3977 46.819 11.9607C47.5431 11.5238 48.3484 11.3053 49.2349 11.3053C49.9091 11.3053 50.552 11.4551 51.1638 11.7547C51.7756 12.0419 52.2625 12.4289 52.6246 12.9159V7.99048H55.2839V21.849H52.6246V20.3133C52.3 20.8252 51.8443 21.2372 51.2575 21.5493C50.6707 21.8615 49.9902 22.0175 49.2161 22.0175C48.3422 22.0175 47.5431 21.7928 46.819 21.3433C46.0949 20.8939 45.5205 20.2634 45.096 19.4518C44.684 18.6278 44.478 17.6852 44.478 16.6239ZM52.6433 16.6614C52.6433 16.0247 52.5184 15.4816 52.2687 15.0321C52.019 14.5701 51.6819 14.2206 51.2575 13.9833C50.833 13.7336 50.3772 13.6088 49.8903 13.6088C49.4034 13.6088 48.9539 13.7274 48.5419 13.9646C48.1299 14.2018 47.7928 14.5514 47.5306 15.0134C47.2809 15.4628 47.1561 15.9997 47.1561 16.6239C47.1561 17.2482 47.2809 17.7975 47.5306 18.272C47.7928 18.7339 48.1299 19.0898 48.5419 19.3395C48.9664 19.5892 49.4159 19.714 49.8903 19.714C50.3772 19.714 50.833 19.5954 51.2575 19.3582C51.6819 19.1085 52.019 18.7589 52.2687 18.3094C52.5184 17.8475 52.6433 17.2981 52.6433 16.6614Z" fill="white"/>
<path d="M60.8972 13.6275V18.6465C60.8972 18.9961 60.9784 19.2521 61.1407 19.4144C61.3155 19.5642 61.6026 19.6391 62.0022 19.6391H63.2195V21.849H61.5714C59.3616 21.849 58.2566 20.7752 58.2566 18.6278V13.6275H57.0206V11.4738H58.2566V8.90813H60.8972V11.4738H63.2195V13.6275H60.8972Z" fill="white"/>
<path d="M82.4524 11.324C83.7258 11.324 84.7496 11.7173 85.5237 12.5039C86.3103 13.2779 86.7036 14.3641 86.7036 15.7625V21.849H84.0817V16.1183C84.0817 15.3068 83.8757 14.6887 83.4637 14.2643C83.0517 13.8273 82.4898 13.6088 81.7782 13.6088C81.0665 13.6088 80.4984 13.8273 80.074 14.2643C79.6619 14.6887 79.4559 15.3068 79.4559 16.1183V21.849H76.8341V16.1183C76.8341 15.3068 76.6281 14.6887 76.216 14.2643C75.804 13.8273 75.2422 13.6088 74.5306 13.6088C73.8064 13.6088 73.2321 13.8273 72.8076 14.2643C72.3956 14.6887 72.1896 15.3068 72.1896 16.1183V21.849H69.5677V11.4738H72.1896V12.7286C72.5267 12.2916 72.9574 11.9483 73.4818 11.6986C74.0187 11.4489 74.6055 11.324 75.2422 11.324C76.0537 11.324 76.7779 11.4988 77.4146 11.8484C78.0514 12.1855 78.5445 12.6724 78.8941 13.3091C79.2312 12.7099 79.7181 12.2292 80.3549 11.8671C81.0041 11.505 81.7033 11.324 82.4524 11.324Z" fill="white"/>
<path d="M93.7986 22.0175C92.7998 22.0175 91.9008 21.799 91.1018 21.362C90.3027 20.9126 89.6722 20.2821 89.2103 19.4706C88.7608 18.659 88.5361 17.7226 88.5361 16.6614C88.5361 15.6002 88.7671 14.6638 89.229 13.8522C89.7034 13.0407 90.3464 12.4165 91.158 11.9795C91.9695 11.53 92.8747 11.3053 93.8735 11.3053C94.8723 11.3053 95.7775 11.53 96.589 11.9795C97.4005 12.4165 98.0373 13.0407 98.4992 13.8522C98.9736 14.6638 99.2109 15.6002 99.2109 16.6614C99.2109 17.7226 98.9674 18.659 98.4805 19.4706C98.0061 20.2821 97.3568 20.9126 96.5328 21.362C95.7213 21.799 94.8099 22.0175 93.7986 22.0175ZM93.7986 19.7327C94.273 19.7327 94.7162 19.6204 95.1282 19.3956C95.5527 19.1584 95.8898 18.8088 96.1395 18.3469C96.3892 17.8849 96.5141 17.3231 96.5141 16.6614C96.5141 15.6751 96.2519 14.9197 95.7275 14.3953C95.2156 13.8585 94.5851 13.5901 93.836 13.5901C93.0869 13.5901 92.4564 13.8585 91.9445 14.3953C91.4451 14.9197 91.1954 15.6751 91.1954 16.6614C91.1954 17.6477 91.4389 18.4093 91.9258 18.9462C92.4252 19.4706 93.0495 19.7327 93.7986 19.7327Z" fill="white"/>
<path d="M106.884 11.324C108.12 11.324 109.118 11.7173 109.88 12.5039C110.642 13.2779 111.022 14.3641 111.022 15.7625V21.849H108.4V16.1183C108.4 15.2943 108.194 14.6638 107.782 14.2268C107.37 13.7773 106.809 13.5526 106.097 13.5526C105.373 13.5526 104.798 13.7773 104.374 14.2268C103.962 14.6638 103.756 15.2943 103.756 16.1183V21.849H101.134V11.4738H103.756V12.766C104.106 12.3166 104.549 11.967 105.086 11.7173C105.635 11.4551 106.234 11.324 106.884 11.324Z" fill="white"/>
<path d="M123.16 16.4367C123.16 16.8112 123.135 17.1483 123.085 17.448H115.501C115.563 18.1971 115.825 18.7839 116.287 19.2084C116.749 19.6329 117.317 19.8451 117.992 19.8451C118.965 19.8451 119.658 19.4269 120.07 18.5903H122.898C122.599 19.5892 122.024 20.4132 121.175 21.0624C120.326 21.6991 119.284 22.0175 118.048 22.0175C117.049 22.0175 116.15 21.799 115.351 21.362C114.564 20.9126 113.946 20.2821 113.497 19.4706C113.06 18.659 112.841 17.7226 112.841 16.6614C112.841 15.5877 113.06 14.6451 113.497 13.8335C113.934 13.022 114.546 12.3977 115.332 11.9607C116.119 11.5238 117.024 11.3053 118.048 11.3053C119.034 11.3053 119.914 11.5175 120.688 11.942C121.475 12.3665 122.08 12.972 122.505 13.7586C122.942 14.5327 123.16 15.4254 123.16 16.4367ZM120.445 15.6876C120.432 15.0134 120.189 14.4765 119.714 14.077C119.24 13.665 118.659 13.459 117.973 13.459C117.324 13.459 116.774 13.6587 116.325 14.0582C115.888 14.4453 115.619 14.9884 115.519 15.6876H120.445Z" fill="white"/>
<path d="M135 11.4738L128.576 26.7556H125.786L128.033 21.5868L123.876 11.4738H126.816L129.494 18.7214L132.209 11.4738H135Z" fill="white"/>
<path d="M26.6418 4.57097C23.6942 1.62331 19.775 0 15.6064 0C11.4378 0 7.51863 1.62331 4.57097 4.57097C1.62331 7.51863 0 11.4378 0 15.6064C0 19.775 1.62337 23.6941 4.57097 26.6418C7.51857 29.5896 11.4378 31.2128 15.6064 31.2128C19.775 31.2128 23.6942 29.5895 26.6418 26.6418C29.5895 23.6942 31.2128 19.775 31.2128 15.6064C31.2128 11.4378 29.5894 7.51869 26.6418 4.57097Z" fill="#33CC95"/>
<g clip-path="url(#clip0)">
<path d="M16.0522 6.24263V25.8621" stroke="white" stroke-width="2" stroke-linecap="round" stroke-linejoin="round"/>
<path d="M20.5109 9.80981H13.8225C12.9946 9.80981 12.2007 10.1387 11.6154 10.724C11.03 11.3094 10.7012 12.1033 10.7012 12.9311C10.7012 13.7589 11.03 14.5528 11.6154 15.1382C12.2007 15.7235 12.9946 16.0524 13.8225 16.0524H18.2814C19.1092 16.0524 19.9032 16.3812 20.4885 16.9666C21.0739 17.5519 21.4027 18.3458 21.4027 19.1737C21.4027 20.0015 21.0739 20.7954 20.4885 21.3807C19.9032 21.9661 19.1092 22.2949 18.2814 22.2949H10.7012" stroke="white" stroke-width="2" stroke-linecap="round" stroke-linejoin="round"/>
</g>
<defs>
<clipPath id="clip0">
<rect width="21.4031" height="21.4031" fill="white" transform="translate(5.35059 5.35083)"/>
</clipPath>
</defs>
</svg>
